<?xml version='1.0' encoding='UTF-8' standalone='no'?>
<svg
    xmlns:freecad="http://www.freecadweb.org/wiki/index.php?title=Svg_Namespace"
    xmlns="http://www.w3.org/2000/svg"
    xmlns:cc="http://creativecommons.org/ns#"
    viewBox="0 0 3000 3000"
    xmlns:dc="http://purl.org/dc/elements/1.1/"
    xmlns:svg="http://www.w3.org/2000/svg"
    xmlns:rdf="http://www.w3.org/1999/02/22-rdf-syntax-ns#"
    height="300mm"
    baseProfile="tiny"
    version="1.2"
    width="300mm"
    xmlns:xlink="http://www.w3.org/1999/xlink"
    xmlns:sodipodi="http://sodipodi.sourceforge.net/DTD/sodipodi-0.dtd"
    xmlns:inkscape="http://www.inkscape.org/namespaces/inkscape">
 <title>FreeCAD SVG Export</title>
 <desc>Drawing page: Page exported from FreeCAD document: Unnamed</desc>
 <defs/>
 <g id="Page">
  <g transform="scale(10.000000, 10.000000)" id="TD_CAM_300x300.svg" style="stroke: none;">
   <sodipodi:namedview inkscape:zoom="1.4119129" inkscape:pageshadow="2" guidetolerance="10" inkscape:window-y="0" inkscape:window-height="2067" inkscape:pageopacity="0" inkscape:window-maximized="1" inkscape:document-units="mm" inkscape:showpageshadow="false" id="namedview221" showgrid="false" gridtolerance="10" borderopacity="1" inkscape:cy="576.10431" objecttolerance="10" inkscape:window-x="0" inkscape:cx="552.92492" bordercolor="#666666" inkscape:pagecheckerboard="true" pagecolor="#ffffff" inkscape:window-width="3840" inkscape:current-layer="svg2">
    <inkscape:grid type="xygrid" id="grid811"/>
   </sodipodi:namedview>
   <!-- Working space 10 10 410 287 -->
   <!-- Title block 220 227 410 287 -->
   <metadata id="metadata849">
    <rdf:RDF>
     <cc:Work rdf:about="">
      <dc:format>image/svg+xml</dc:format>
      <dc:type rdf:resource="http://purl.org/dc/dcmitype/StillImage"/>
      <dc:title/>
      <dc:date>01.03.2020</dc:date>
      <dc:creator>
       <cc:Agent>
        <dc:title>Stefan Krüger</dc:title>
       </cc:Agent>
      </dc:creator>
      <dc:rights>
       <cc:Agent>
        <dc:title>Stefan Krüger</dc:title>
       </cc:Agent>
      </dc:rights>
      <dc:publisher>
       <cc:Agent>
        <dc:title>Stefan Krüger</dc:title>
       </cc:Agent>
      </dc:publisher>
      <dc:language>EN / DE</dc:language>
      <cc:license rdf:resource="http://creativecommons.org/publicdomain/zero/1.0/"/>
     </cc:Work>
     <cc:License rdf:about="http://creativecommons.org/publicdomain/zero/1.0/">
      <cc:permits rdf:resource="http://creativecommons.org/ns#Reproduction"/>
      <cc:permits rdf:resource="http://creativecommons.org/ns#Distribution"/>
      <cc:permits rdf:resource="http://creativecommons.org/ns#DerivativeWorks"/>
     </cc:License>
    </rdf:RDF>
   </metadata>
   <defs id="defs847"/>
   <!-- DrawingContent -->
  </g>
  <g fill="none" stroke-width="1" fill-rule="evenodd" id="DrawingContent" stroke="black" stroke-linejoin="bevel" stroke-linecap="square">
   <g fill="#000000" fill-opacity="0" transform="matrix(1,0,0,1,1500,1500)" font-size="42.3333" font-family="Noto Sans" font-style="normal" stroke="none" font-weight="400">
    <path d="M700,0 L700,400 L700,700 L0,700 L-300,700 L-600,700 L-700,700 L-700,400 L-700,148.792 L-700,1.42109e-13 L-700,-400 L-700,-700 L1.11022e-15,-700 L300,-700 L600,-700 L700,-700 L700,-400 L700,-148.792 L700,0" vector-effect="non-scaling-stroke" fill-rule="evenodd"/>
   </g>
   <g fill="none" stroke-width="1" transform="matrix(1,0,0,1,1500,1500)" font-size="42.3333" font-family="Noto Sans" font-style="normal" stroke="#000000" font-weight="400" stroke-opacity="1" stroke-linejoin="bevel" stroke-linecap="square">
    <rect y="0" x="0" height="0" width="0"/>
   </g>
   <g fill="#000000" fill-opacity="0" transform="matrix(1,0,0,1,1500,1500)" font-size="42.3333" font-family="Noto Sans" font-style="normal" stroke="none" font-weight="400">
    <path d="M2.22045e-15,-700 L300,0 L-1.77636e-14,700 L-300,-8.88178e-15 L2.22045e-15,-700" vector-effect="non-scaling-stroke" fill-rule="evenodd"/>
   </g>
   <g fill="none" stroke-width="1" transform="matrix(1,0,0,1,1500,1500)" font-size="42.3333" font-family="Noto Sans" font-style="normal" stroke="#000000" font-weight="400" stroke-opacity="1" stroke-linejoin="bevel" stroke-linecap="square">
    <rect y="0" x="0" height="0" width="0"/>
   </g>
   <g fill="#000000" fill-opacity="0" transform="matrix(1,0,0,1,1500,1500)" font-size="42.3333" font-family="Noto Sans" font-style="normal" stroke="none" font-weight="400">
    <path d="M700,400 L700,700 L0,700 L419.536,280.464 L700,400" vector-effect="non-scaling-stroke" fill-rule="evenodd"/>
   </g>
   <g fill="none" stroke-width="1" transform="matrix(1,0,0,1,1500,1500)" font-size="42.3333" font-family="Noto Sans" font-style="normal" stroke="#000000" font-weight="400" stroke-opacity="1" stroke-linejoin="bevel" stroke-linecap="square">
    <rect y="0" x="0" height="0" width="0"/>
   </g>
   <g fill="#000000" fill-opacity="0" transform="matrix(1,0,0,1,1500,1500)" font-size="42.3333" font-family="Noto Sans" font-style="normal" stroke="none" font-weight="400">
    <path d="M-700,-400 L-700,-700 L2.22045e-15,-700 L-419.536,-280.464 L-700,-400" vector-effect="non-scaling-stroke" fill-rule="evenodd"/>
   </g>
   <g fill="none" stroke-width="1" transform="matrix(1,0,0,1,1500,1500)" font-size="42.3333" font-family="Noto Sans" font-style="normal" stroke="#000000" font-weight="400" stroke-opacity="1" stroke-linejoin="bevel" stroke-linecap="square">
    <rect y="0" x="0" height="0" width="0"/>
   </g>
   <g fill="#000000" fill-opacity="0" transform="matrix(1,0,0,1,1500,1500)" font-size="42.3333" font-family="Noto Sans" font-style="normal" stroke="none" font-weight="400">
    <path d="M300,0 L-3.55271e-14,700 L419.536,280.464 L500,200 L700,0 L300,0" vector-effect="non-scaling-stroke" fill-rule="evenodd"/>
   </g>
   <g fill="none" stroke-width="1" transform="matrix(1,0,0,1,1500,1500)" font-size="42.3333" font-family="Noto Sans" font-style="normal" stroke="#000000" font-weight="400" stroke-opacity="1" stroke-linejoin="bevel" stroke-linecap="square">
    <rect y="0" x="0" height="0" width="0"/>
   </g>
   <g fill="#000000" fill-opacity="0" transform="matrix(1,0,0,1,1500,1500)" font-size="42.3333" font-family="Noto Sans" font-style="normal" stroke="none" font-weight="400">
    <path d="M2.22045e-15,-700 L-300,-1.83697e-14 L-700,2.81916e-14 L-500,-200 L-419.536,-280.464 L2.22045e-15,-700" vector-effect="non-scaling-stroke" fill-rule="evenodd"/>
   </g>
   <g fill="none" stroke-width="1" transform="matrix(1,0,0,1,1500,1500)" font-size="42.3333" font-family="Noto Sans" font-style="normal" stroke="#000000" font-weight="400" stroke-opacity="1" stroke-linejoin="bevel" stroke-linecap="square">
    <rect y="0" x="0" height="0" width="0"/>
   </g>
   <g fill="#000000" fill-opacity="0" transform="matrix(1,0,0,1,1500,1500)" font-size="42.3333" font-family="Noto Sans" font-style="normal" stroke="none" font-weight="400">
    <path d="M1.11022e-15,-700 L214.286,-485.714 L300,-571.429 L506.897,-482.759 L413.793,-265.517 L300,0 L1.11022e-15,-700" vector-effect="non-scaling-stroke" fill-rule="evenodd"/>
   </g>
   <g fill="none" stroke-width="1" transform="matrix(1,0,0,1,1500,1500)" font-size="42.3333" font-family="Noto Sans" font-style="normal" stroke="#000000" font-weight="400" stroke-opacity="1" stroke-linejoin="bevel" stroke-linecap="square">
    <rect y="0" x="0" height="0" width="0"/>
   </g>
   <g fill="#000000" fill-opacity="0" transform="matrix(1,0,0,1,1500,1500)" font-size="42.3333" font-family="Noto Sans" font-style="normal" stroke="none" font-weight="400">
    <path d="M-300,-8.88178e-15 L-2.50991e-14,700 L-214.286,485.714 L-300,571.429 L-506.897,482.759 L-413.793,265.517 L-300,-8.88178e-15" vector-effect="non-scaling-stroke" fill-rule="evenodd"/>
   </g>
   <g fill="none" stroke-width="1" transform="matrix(1,0,0,1,1500,1500)" font-size="42.3333" font-family="Noto Sans" font-style="normal" stroke="#000000" font-weight="400" stroke-opacity="1" stroke-linejoin="bevel" stroke-linecap="square">
    <rect y="0" x="0" height="0" width="0"/>
   </g>
   <g fill="#000000" fill-opacity="0" transform="matrix(1,0,0,1,1500,1500)" font-size="42.3333" font-family="Noto Sans" font-style="normal" stroke="none" font-weight="400">
    <path d="M600,-700 L700,-700 L700,-400 L574.71,-265.517 L413.793,-265.517 L506.897,-482.759 L600,-700" vector-effect="non-scaling-stroke" fill-rule="evenodd"/>
   </g>
   <g fill="none" stroke-width="1" transform="matrix(1,0,0,1,1500,1500)" font-size="42.3333" font-family="Noto Sans" font-style="normal" stroke="#000000" font-weight="400" stroke-opacity="1" stroke-linejoin="bevel" stroke-linecap="square">
    <rect y="0" x="0" height="0" width="0"/>
   </g>
   <g fill="#000000" fill-opacity="0" transform="matrix(1,0,0,1,1500,1500)" font-size="42.3333" font-family="Noto Sans" font-style="normal" stroke="none" font-weight="400">
    <path d="M-413.793,265.517 L-506.897,482.759 L-600,700 L-700,700 L-700,400 L-574.71,265.517 L-413.793,265.517" vector-effect="non-scaling-stroke" fill-rule="evenodd"/>
   </g>
   <g fill="none" stroke-width="1" transform="matrix(1,0,0,1,1500,1500)" font-size="42.3333" font-family="Noto Sans" font-style="normal" stroke="#000000" font-weight="400" stroke-opacity="1" stroke-linejoin="bevel" stroke-linecap="square">
    <rect y="0" x="0" height="0" width="0"/>
   </g>
   <g fill="#000000" fill-opacity="0" transform="matrix(1,0,0,1,1500,1500)" font-size="42.3333" font-family="Noto Sans" font-style="normal" stroke="none" font-weight="400">
    <path d="M413.793,-265.517 L574.71,-265.517 L700,-400 L700,-148.792 L300,8.88178e-15 L413.793,-265.517" vector-effect="non-scaling-stroke" fill-rule="evenodd"/>
   </g>
   <g fill="none" stroke-width="1" transform="matrix(1,0,0,1,1500,1500)" font-size="42.3333" font-family="Noto Sans" font-style="normal" stroke="#000000" font-weight="400" stroke-opacity="1" stroke-linejoin="bevel" stroke-linecap="square">
    <rect y="0" x="0" height="0" width="0"/>
   </g>
   <g fill="#000000" fill-opacity="0" transform="matrix(1,0,0,1,1500,1500)" font-size="42.3333" font-family="Noto Sans" font-style="normal" stroke="none" font-weight="400">
    <path d="M-300,-2.66454e-14 L-413.793,265.517 L-574.71,265.517 L-700,400 L-700,148.792 L-300,-2.66454e-14" vector-effect="non-scaling-stroke" fill-rule="evenodd"/>
   </g>
   <g fill="none" stroke-width="1" transform="matrix(1,0,0,1,1500,1500)" font-size="42.3333" font-family="Noto Sans" font-style="normal" stroke="#000000" font-weight="400" stroke-opacity="1" stroke-linejoin="bevel" stroke-linecap="square">
    <rect y="0" x="0" height="0" width="0"/>
   </g>
   <g fill="#000000" fill-opacity="0" transform="matrix(1,0,0,1,1500,1500)" font-size="42.3333" font-family="Noto Sans" font-style="normal" stroke="none" font-weight="400">
    <path d="M-506.897,482.759 L-600,700 L-300,700 L-300,571.429 L-506.897,482.759" vector-effect="non-scaling-stroke" fill-rule="evenodd"/>
   </g>
   <g fill="none" stroke-width="1" transform="matrix(1,0,0,1,1500,1500)" font-size="42.3333" font-family="Noto Sans" font-style="normal" stroke="#000000" font-weight="400" stroke-opacity="1" stroke-linejoin="bevel" stroke-linecap="square">
    <rect y="0" x="0" height="0" width="0"/>
   </g>
   <g fill="#000000" fill-opacity="0" transform="matrix(1,0,0,1,1500,1500)" font-size="42.3333" font-family="Noto Sans" font-style="normal" stroke="none" font-weight="400">
    <path d="M300,-700 L600,-700 L506.897,-482.759 L300,-571.429 L300,-700" vector-effect="non-scaling-stroke" fill-rule="evenodd"/>
   </g>
   <g fill="none" stroke-width="1" transform="matrix(1,0,0,1,1500,1500)" font-size="42.3333" font-family="Noto Sans" font-style="normal" stroke="#000000" font-weight="400" stroke-opacity="1" stroke-linejoin="bevel" stroke-linecap="square">
    <rect y="0" x="0" height="0" width="0"/>
   </g>
   <g fill="#000000" fill-opacity="0" transform="matrix(1,0,0,1,1500,1500)" font-size="42.3333" font-family="Noto Sans" font-style="normal" stroke="none" font-weight="400">
    <path d="M-500,-200 L-700,1.42109e-13 L-700,-400 L-500,-200" vector-effect="non-scaling-stroke" fill-rule="evenodd"/>
   </g>
   <g fill="none" stroke-width="1" transform="matrix(1,0,0,1,1500,1500)" font-size="42.3333" font-family="Noto Sans" font-style="normal" stroke="#000000" font-weight="400" stroke-opacity="1" stroke-linejoin="bevel" stroke-linecap="square">
    <rect y="0" x="0" height="0" width="0"/>
   </g>
   <g fill="#000000" fill-opacity="0" transform="matrix(1,0,0,1,1500,1500)" font-size="42.3333" font-family="Noto Sans" font-style="normal" stroke="none" font-weight="400">
    <path d="M700,-7.10543e-14 L700,400 L500,200 L700,-7.10543e-14" vector-effect="non-scaling-stroke" fill-rule="evenodd"/>
   </g>
   <g fill="none" stroke-width="1" transform="matrix(1,0,0,1,1500,1500)" font-size="42.3333" font-family="Noto Sans" font-style="normal" stroke="#000000" font-weight="400" stroke-opacity="1" stroke-linejoin="bevel" stroke-linecap="square">
    <rect y="0" x="0" height="0" width="0"/>
   </g>
   <g fill="#000000" fill-opacity="0" transform="matrix(1,0,0,1,1500,1500)" font-size="42.3333" font-family="Noto Sans" font-style="normal" stroke="none" font-weight="400">
    <path d="M700,0 L700,-148.792 L300,8.88178e-15 L700,0" vector-effect="non-scaling-stroke" fill-rule="evenodd"/>
   </g>
   <g fill="none" stroke-width="1" transform="matrix(1,0,0,1,1500,1500)" font-size="42.3333" font-family="Noto Sans" font-style="normal" stroke="#000000" font-weight="400" stroke-opacity="1" stroke-linejoin="bevel" stroke-linecap="square">
    <rect y="0" x="0" height="0" width="0"/>
   </g>
   <g fill="#000000" fill-opacity="0" transform="matrix(1,0,0,1,1500,1500)" font-size="42.3333" font-family="Noto Sans" font-style="normal" stroke="none" font-weight="400">
    <path d="M-700,148.792 L-300,-4.50151e-14 L-700,1.42109e-13 L-700,148.792" vector-effect="non-scaling-stroke" fill-rule="evenodd"/>
   </g>
   <g fill="none" stroke-width="1" transform="matrix(1,0,0,1,1500,1500)" font-size="42.3333" font-family="Noto Sans" font-style="normal" stroke="#000000" font-weight="400" stroke-opacity="1" stroke-linejoin="bevel" stroke-linecap="square">
    <rect y="0" x="0" height="0" width="0"/>
   </g>
   <g fill="#000000" fill-opacity="0" transform="matrix(1,0,0,1,1500,1500)" font-size="42.3333" font-family="Noto Sans" font-style="normal" stroke="none" font-weight="400">
    <path d="M-300,700 L0,700 L-300,571.429 L-300,700" vector-effect="non-scaling-stroke" fill-rule="evenodd"/>
   </g>
   <g fill="none" stroke-width="1" transform="matrix(1,0,0,1,1500,1500)" font-size="42.3333" font-family="Noto Sans" font-style="normal" stroke="#000000" font-weight="400" stroke-opacity="1" stroke-linejoin="bevel" stroke-linecap="square">
    <rect y="0" x="0" height="0" width="0"/>
   </g>
   <g fill="#000000" fill-opacity="0" transform="matrix(1,0,0,1,1500,1500)" font-size="42.3333" font-family="Noto Sans" font-style="normal" stroke="none" font-weight="400">
    <path d="M2.22045e-15,-700 L300,-700 L300,-571.429 L2.22045e-15,-700" vector-effect="non-scaling-stroke" fill-rule="evenodd"/>
   </g>
   <g fill="none" stroke-width="1" transform="matrix(1,0,0,1,1500,1500)" font-size="42.3333" font-family="Noto Sans" font-style="normal" stroke="#000000" font-weight="400" stroke-opacity="1" stroke-linejoin="bevel" stroke-linecap="square">
    <rect y="0" x="0" height="0" width="0"/>
   </g>
   <g fill="#000000" fill-opacity="0" transform="matrix(1,0,0,1,1500,1500)" font-size="42.3333" font-family="Noto Sans" font-style="normal" stroke="none" font-weight="400">
    <path d="M-4.28626e-14,700 L-214.286,485.714 L-300,571.429 L-4.28626e-14,700" vector-effect="non-scaling-stroke" fill-rule="evenodd"/>
   </g>
   <g fill="none" stroke-width="1" transform="matrix(1,0,0,1,1500,1500)" font-size="42.3333" font-family="Noto Sans" font-style="normal" stroke="#000000" font-weight="400" stroke-opacity="1" stroke-linejoin="bevel" stroke-linecap="square">
    <rect y="0" x="0" height="0" width="0"/>
   </g>
   <g fill="#000000" fill-opacity="0" transform="matrix(1,0,0,1,1500,1500)" font-size="42.3333" font-family="Noto Sans" font-style="normal" stroke="none" font-weight="400">
    <path d="M2.22045e-15,-700 L214.286,-485.714 L300,-571.429 L2.22045e-15,-700" vector-effect="non-scaling-stroke" fill-rule="evenodd"/>
   </g>
   <g fill="none" stroke-width="1" transform="matrix(1,0,0,1,1500,1500)" font-size="42.3333" font-family="Noto Sans" font-style="normal" stroke="#000000" font-weight="400" stroke-opacity="1" stroke-linejoin="bevel" stroke-linecap="square">
    <rect y="0" x="0" height="0" width="0"/>
   </g>
   <g fill="#000000" fill-opacity="0" transform="matrix(1,0,0,1,1500,1500)" font-size="42.3333" font-family="Noto Sans" font-style="normal" stroke="none" font-weight="400">
    <path d="M-700,-400 L-419.536,-280.464 L-500,-200 L-700,-400" vector-effect="non-scaling-stroke" fill-rule="evenodd"/>
   </g>
   <g fill="none" stroke-width="1" transform="matrix(1,0,0,1,1500,1500)" font-size="42.3333" font-family="Noto Sans" font-style="normal" stroke="#000000" font-weight="400" stroke-opacity="1" stroke-linejoin="bevel" stroke-linecap="square">
    <rect y="0" x="0" height="0" width="0"/>
   </g>
   <g fill="#000000" fill-opacity="0" transform="matrix(1,0,0,1,1500,1500)" font-size="42.3333" font-family="Noto Sans" font-style="normal" stroke="none" font-weight="400">
    <path d="M700,400 L500,200 L419.536,280.464 L700,400" vector-effect="non-scaling-stroke" fill-rule="evenodd"/>
   </g>
   <g fill="none" stroke-width="1" transform="matrix(1,0,0,1,1500,1500)" font-size="42.3333" font-family="Noto Sans" font-style="normal" stroke="#000000" font-weight="400" stroke-opacity="1" stroke-linejoin="bevel" stroke-linecap="square">
    <rect y="0" x="0" height="0" width="0"/>
   </g>
   <g fill="none" stroke-width="2.5" transform="matrix(1,0,0,1,1500,1500)" font-size="42.3333" font-family="Noto Sans" font-style="normal" stroke="#000000" font-weight="400" stroke-opacity="1" stroke-linejoin="bevel" stroke-linecap="round">
    <path d="M-300,-3.67394e-14 L-700,-8.57253e-14" vector-effect="none" fill-rule="evenodd"/>
   </g>
   <g fill="none" stroke-width="2.5" transform="matrix(1,0,0,1,1500,1500)" font-size="42.3333" font-family="Noto Sans" font-style="normal" stroke="#000000" font-weight="400" stroke-opacity="1" stroke-linejoin="bevel" stroke-linecap="round">
    <path d="M-700,-8.57253e-14 L-700,148.792" vector-effect="none" fill-rule="evenodd"/>
   </g>
   <g fill="none" stroke-width="2.5" transform="matrix(1,0,0,1,1500,1500)" font-size="42.3333" font-family="Noto Sans" font-style="normal" stroke="#000000" font-weight="400" stroke-opacity="1" stroke-linejoin="bevel" stroke-linecap="round">
    <path d="M-700,148.792 L-300,-5.32907e-14" vector-effect="none" fill-rule="evenodd"/>
   </g>
   <g fill="none" stroke-width="2.5" transform="matrix(1,0,0,1,1500,1500)" font-size="42.3333" font-family="Noto Sans" font-style="normal" stroke="#000000" font-weight="400" stroke-opacity="1" stroke-linejoin="bevel" stroke-linecap="round">
    <path d="M-300,-3.67394e-14 L-413.793,265.517" vector-effect="none" fill-rule="evenodd"/>
   </g>
   <g fill="none" stroke-width="2.5" transform="matrix(1,0,0,1,1500,1500)" font-size="42.3333" font-family="Noto Sans" font-style="normal" stroke="#000000" font-weight="400" stroke-opacity="1" stroke-linejoin="bevel" stroke-linecap="round">
    <path d="M-413.793,265.517 L-574.71,265.517" vector-effect="none" fill-rule="evenodd"/>
   </g>
   <g fill="none" stroke-width="2.5" transform="matrix(1,0,0,1,1500,1500)" font-size="42.3333" font-family="Noto Sans" font-style="normal" stroke="#000000" font-weight="400" stroke-opacity="1" stroke-linejoin="bevel" stroke-linecap="round">
    <path d="M-574.71,265.517 L-700,400" vector-effect="none" fill-rule="evenodd"/>
   </g>
   <g fill="none" stroke-width="2.5" transform="matrix(1,0,0,1,1500,1500)" font-size="42.3333" font-family="Noto Sans" font-style="normal" stroke="#000000" font-weight="400" stroke-opacity="1" stroke-linejoin="bevel" stroke-linecap="round">
    <path d="M-700,400 L-700,148.792" vector-effect="none" fill-rule="evenodd"/>
   </g>
   <g fill="none" stroke-width="2.5" transform="matrix(1,0,0,1,1500,1500)" font-size="42.3333" font-family="Noto Sans" font-style="normal" stroke="#000000" font-weight="400" stroke-opacity="1" stroke-linejoin="bevel" stroke-linecap="round">
    <path d="M-700,-8.57253e-14 L-700,-400" vector-effect="none" fill-rule="evenodd"/>
   </g>
   <g fill="none" stroke-width="2.5" transform="matrix(1,0,0,1,1500,1500)" font-size="42.3333" font-family="Noto Sans" font-style="normal" stroke="#000000" font-weight="400" stroke-opacity="1" stroke-linejoin="bevel" stroke-linecap="round">
    <path d="M-700,-400 L-500,-200" vector-effect="none" fill-rule="evenodd"/>
   </g>
   <g fill="none" stroke-width="2.5" transform="matrix(1,0,0,1,1500,1500)" font-size="42.3333" font-family="Noto Sans" font-style="normal" stroke="#000000" font-weight="400" stroke-opacity="1" stroke-linejoin="bevel" stroke-linecap="round">
    <path d="M-419.536,-280.464 L-500,-200" vector-effect="none" fill-rule="evenodd"/>
   </g>
   <g fill="none" stroke-width="2.5" transform="matrix(1,0,0,1,1500,1500)" font-size="42.3333" font-family="Noto Sans" font-style="normal" stroke="#000000" font-weight="400" stroke-opacity="1" stroke-linejoin="bevel" stroke-linecap="round">
    <path d="M-700,-400 L-419.536,-280.464" vector-effect="none" fill-rule="evenodd"/>
   </g>
   <g fill="none" stroke-width="2.5" transform="matrix(1,0,0,1,1500,1500)" font-size="42.3333" font-family="Noto Sans" font-style="normal" stroke="#000000" font-weight="400" stroke-opacity="1" stroke-linejoin="bevel" stroke-linecap="round">
    <path d="M-500,-200 L-700,-1.06581e-13" vector-effect="none" fill-rule="evenodd"/>
   </g>
   <g fill="none" stroke-width="2.5" transform="matrix(1,0,0,1,1500,1500)" font-size="42.3333" font-family="Noto Sans" font-style="normal" stroke="#000000" font-weight="400" stroke-opacity="1" stroke-linejoin="bevel" stroke-linecap="round">
    <path d="M-8.57253e-14,700 L-300,700" vector-effect="none" fill-rule="evenodd"/>
   </g>
   <g fill="none" stroke-width="2.5" transform="matrix(1,0,0,1,1500,1500)" font-size="42.3333" font-family="Noto Sans" font-style="normal" stroke="#000000" font-weight="400" stroke-opacity="1" stroke-linejoin="bevel" stroke-linecap="round">
    <path d="M-300,700 L-300,571.429" vector-effect="none" fill-rule="evenodd"/>
   </g>
   <g fill="none" stroke-width="2.5" transform="matrix(1,0,0,1,1500,1500)" font-size="42.3333" font-family="Noto Sans" font-style="normal" stroke="#000000" font-weight="400" stroke-opacity="1" stroke-linejoin="bevel" stroke-linecap="round">
    <path d="M-300,571.429 L-7.10543e-14,700" vector-effect="none" fill-rule="evenodd"/>
   </g>
   <g fill="none" stroke-width="2.5" transform="matrix(1,0,0,1,1500,1500)" font-size="42.3333" font-family="Noto Sans" font-style="normal" stroke="#000000" font-weight="400" stroke-opacity="1" stroke-linejoin="bevel" stroke-linecap="round">
    <path d="M-8.57253e-14,700 L-214.286,485.714" vector-effect="none" fill-rule="evenodd"/>
   </g>
   <g fill="none" stroke-width="2.5" transform="matrix(1,0,0,1,1500,1500)" font-size="42.3333" font-family="Noto Sans" font-style="normal" stroke="#000000" font-weight="400" stroke-opacity="1" stroke-linejoin="bevel" stroke-linecap="round">
    <path d="M-214.286,485.714 L-300,571.429" vector-effect="none" fill-rule="evenodd"/>
   </g>
   <g fill="none" stroke-width="2.5" transform="matrix(1,0,0,1,1500,1500)" font-size="42.3333" font-family="Noto Sans" font-style="normal" stroke="#000000" font-weight="400" stroke-opacity="1" stroke-linejoin="bevel" stroke-linecap="round">
    <path d="M-700,-700 L700,-700" vector-effect="none" fill-rule="evenodd"/>
   </g>
   <g fill="none" stroke-width="2.5" transform="matrix(1,0,0,1,1500,1500)" font-size="42.3333" font-family="Noto Sans" font-style="normal" stroke="#000000" font-weight="400" stroke-opacity="1" stroke-linejoin="bevel" stroke-linecap="round">
    <path d="M700,-700 L700,700" vector-effect="none" fill-rule="evenodd"/>
   </g>
   <g fill="none" stroke-width="2.5" transform="matrix(1,0,0,1,1500,1500)" font-size="42.3333" font-family="Noto Sans" font-style="normal" stroke="#000000" font-weight="400" stroke-opacity="1" stroke-linejoin="bevel" stroke-linecap="round">
    <path d="M700,700 L-700,700" vector-effect="none" fill-rule="evenodd"/>
   </g>
   <g fill="none" stroke-width="2.5" transform="matrix(1,0,0,1,1500,1500)" font-size="42.3333" font-family="Noto Sans" font-style="normal" stroke="#000000" font-weight="400" stroke-opacity="1" stroke-linejoin="bevel" stroke-linecap="round">
    <path d="M-700,700 L-700,-700" vector-effect="none" fill-rule="evenodd"/>
   </g>
   <g fill="none" stroke-width="2.5" transform="matrix(1,0,0,1,1500,1500)" font-size="42.3333" font-family="Noto Sans" font-style="normal" stroke="#000000" font-weight="400" stroke-opacity="1" stroke-linejoin="bevel" stroke-linecap="round">
    <path d="M700,0 L700,400" vector-effect="none" fill-rule="evenodd"/>
   </g>
   <g fill="none" stroke-width="2.5" transform="matrix(1,0,0,1,1500,1500)" font-size="42.3333" font-family="Noto Sans" font-style="normal" stroke="#000000" font-weight="400" stroke-opacity="1" stroke-linejoin="bevel" stroke-linecap="round">
    <path d="M700,400 L500,200" vector-effect="none" fill-rule="evenodd"/>
   </g>
   <g fill="none" stroke-width="2.5" transform="matrix(1,0,0,1,1500,1500)" font-size="42.3333" font-family="Noto Sans" font-style="normal" stroke="#000000" font-weight="400" stroke-opacity="1" stroke-linejoin="bevel" stroke-linecap="round">
    <path d="M419.536,280.464 L500,200" vector-effect="none" fill-rule="evenodd"/>
   </g>
   <g fill="none" stroke-width="2.5" transform="matrix(1,0,0,1,1500,1500)" font-size="42.3333" font-family="Noto Sans" font-style="normal" stroke="#000000" font-weight="400" stroke-opacity="1" stroke-linejoin="bevel" stroke-linecap="round">
    <path d="M700,400 L419.536,280.464" vector-effect="none" fill-rule="evenodd"/>
   </g>
   <g fill="none" stroke-width="2.5" transform="matrix(1,0,0,1,1500,1500)" font-size="42.3333" font-family="Noto Sans" font-style="normal" stroke="#000000" font-weight="400" stroke-opacity="1" stroke-linejoin="bevel" stroke-linecap="round">
    <path d="M500,200 L700,0" vector-effect="none" fill-rule="evenodd"/>
   </g>
   <g fill="none" stroke-width="2.5" transform="matrix(1,0,0,1,1500,1500)" font-size="42.3333" font-family="Noto Sans" font-style="normal" stroke="#000000" font-weight="400" stroke-opacity="1" stroke-linejoin="bevel" stroke-linecap="round">
    <path d="M0,-700 L300,-700" vector-effect="none" fill-rule="evenodd"/>
   </g>
   <g fill="none" stroke-width="2.5" transform="matrix(1,0,0,1,1500,1500)" font-size="42.3333" font-family="Noto Sans" font-style="normal" stroke="#000000" font-weight="400" stroke-opacity="1" stroke-linejoin="bevel" stroke-linecap="round">
    <path d="M300,-700 L300,-571.429" vector-effect="none" fill-rule="evenodd"/>
   </g>
   <g fill="none" stroke-width="2.5" transform="matrix(1,0,0,1,1500,1500)" font-size="42.3333" font-family="Noto Sans" font-style="normal" stroke="#000000" font-weight="400" stroke-opacity="1" stroke-linejoin="bevel" stroke-linecap="round">
    <path d="M300,-571.429 L0,-700" vector-effect="none" fill-rule="evenodd"/>
   </g>
   <g fill="none" stroke-width="2.5" transform="matrix(1,0,0,1,1500,1500)" font-size="42.3333" font-family="Noto Sans" font-style="normal" stroke="#000000" font-weight="400" stroke-opacity="1" stroke-linejoin="bevel" stroke-linecap="round">
    <path d="M0,-700 L214.286,-485.714" vector-effect="none" fill-rule="evenodd"/>
   </g>
   <g fill="none" stroke-width="2.5" transform="matrix(1,0,0,1,1500,1500)" font-size="42.3333" font-family="Noto Sans" font-style="normal" stroke="#000000" font-weight="400" stroke-opacity="1" stroke-linejoin="bevel" stroke-linecap="round">
    <path d="M214.286,-485.714 L300,-571.429" vector-effect="none" fill-rule="evenodd"/>
   </g>
   <g fill="none" stroke-width="2.5" transform="matrix(1,0,0,1,1500,1500)" font-size="42.3333" font-family="Noto Sans" font-style="normal" stroke="#000000" font-weight="400" stroke-opacity="1" stroke-linejoin="bevel" stroke-linecap="round">
    <path d="M300,0 L700,0" vector-effect="none" fill-rule="evenodd"/>
   </g>
   <g fill="none" stroke-width="2.5" transform="matrix(1,0,0,1,1500,1500)" font-size="42.3333" font-family="Noto Sans" font-style="normal" stroke="#000000" font-weight="400" stroke-opacity="1" stroke-linejoin="bevel" stroke-linecap="round">
    <path d="M700,0 L700,-148.792" vector-effect="none" fill-rule="evenodd"/>
   </g>
   <g fill="none" stroke-width="2.5" transform="matrix(1,0,0,1,1500,1500)" font-size="42.3333" font-family="Noto Sans" font-style="normal" stroke="#000000" font-weight="400" stroke-opacity="1" stroke-linejoin="bevel" stroke-linecap="round">
    <path d="M700,-148.792 L300,1.77636e-14" vector-effect="none" fill-rule="evenodd"/>
   </g>
   <g fill="none" stroke-width="2.5" transform="matrix(1,0,0,1,1500,1500)" font-size="42.3333" font-family="Noto Sans" font-style="normal" stroke="#000000" font-weight="400" stroke-opacity="1" stroke-linejoin="bevel" stroke-linecap="round">
    <path d="M300,0 L413.793,-265.517" vector-effect="none" fill-rule="evenodd"/>
   </g>
   <g fill="none" stroke-width="2.5" transform="matrix(1,0,0,1,1500,1500)" font-size="42.3333" font-family="Noto Sans" font-style="normal" stroke="#000000" font-weight="400" stroke-opacity="1" stroke-linejoin="bevel" stroke-linecap="round">
    <path d="M413.793,-265.517 L574.71,-265.517" vector-effect="none" fill-rule="evenodd"/>
   </g>
   <g fill="none" stroke-width="2.5" transform="matrix(1,0,0,1,1500,1500)" font-size="42.3333" font-family="Noto Sans" font-style="normal" stroke="#000000" font-weight="400" stroke-opacity="1" stroke-linejoin="bevel" stroke-linecap="round">
    <path d="M574.71,-265.517 L700,-400" vector-effect="none" fill-rule="evenodd"/>
   </g>
   <g fill="none" stroke-width="2.5" transform="matrix(1,0,0,1,1500,1500)" font-size="42.3333" font-family="Noto Sans" font-style="normal" stroke="#000000" font-weight="400" stroke-opacity="1" stroke-linejoin="bevel" stroke-linecap="round">
    <path d="M700,-400 L700,-148.792" vector-effect="none" fill-rule="evenodd"/>
   </g>
   <g fill="none" stroke-width="2.5" transform="matrix(1,0,0,1,1500,1500)" font-size="42.3333" font-family="Noto Sans" font-style="normal" stroke="#000000" font-weight="400" stroke-opacity="1" stroke-linejoin="bevel" stroke-linecap="round">
    <path d="M2.22045e-15,-700 L300,0" vector-effect="none" fill-rule="evenodd"/>
   </g>
   <g fill="none" stroke-width="2.5" transform="matrix(1,0,0,1,1500,1500)" font-size="42.3333" font-family="Noto Sans" font-style="normal" stroke="#000000" font-weight="400" stroke-opacity="1" stroke-linejoin="bevel" stroke-linecap="round">
    <path d="M2.22045e-15,-700 L506.897,-482.759" vector-effect="none" fill-rule="evenodd"/>
   </g>
   <g fill="none" stroke-width="2.5" transform="matrix(1,0,0,1,1500,1500)" font-size="42.3333" font-family="Noto Sans" font-style="normal" stroke="#000000" font-weight="400" stroke-opacity="1" stroke-linejoin="bevel" stroke-linecap="round">
    <path d="M2.22045e-15,-700 L-700,1.42109e-13" vector-effect="none" fill-rule="evenodd"/>
   </g>
   <g fill="none" stroke-width="2.5" transform="matrix(1,0,0,1,1500,1500)" font-size="42.3333" font-family="Noto Sans" font-style="normal" stroke="#000000" font-weight="400" stroke-opacity="1" stroke-linejoin="bevel" stroke-linecap="round">
    <path d="M-506.897,482.759 L0,700" vector-effect="none" fill-rule="evenodd"/>
   </g>
   <g fill="none" stroke-width="2.5" transform="matrix(1,0,0,1,1500,1500)" font-size="42.3333" font-family="Noto Sans" font-style="normal" stroke="#000000" font-weight="400" stroke-opacity="1" stroke-linejoin="bevel" stroke-linecap="round">
    <path d="M-300,-1.77636e-14 L3.55271e-14,700" vector-effect="none" fill-rule="evenodd"/>
   </g>
   <g fill="none" stroke-width="2.5" transform="matrix(1,0,0,1,1500,1500)" font-size="42.3333" font-family="Noto Sans" font-style="normal" stroke="#000000" font-weight="400" stroke-opacity="1" stroke-linejoin="bevel" stroke-linecap="round">
    <path d="M0,700 L700,-1.42109e-13" vector-effect="none" fill-rule="evenodd"/>
   </g>
   <g fill="none" stroke-width="2.5" transform="matrix(1,0,0,1,1500,1500)" font-size="42.3333" font-family="Noto Sans" font-style="normal" stroke="#000000" font-weight="400" stroke-opacity="1" stroke-linejoin="bevel" stroke-linecap="round">
    <path d="M-700,700 L-600,700" vector-effect="none" fill-rule="evenodd"/>
   </g>
   <g fill="none" stroke-width="2.5" transform="matrix(1,0,0,1,1500,1500)" font-size="42.3333" font-family="Noto Sans" font-style="normal" stroke="#000000" font-weight="400" stroke-opacity="1" stroke-linejoin="bevel" stroke-linecap="round">
    <path d="M600,-700 L-7.10543e-14,700" vector-effect="none" fill-rule="evenodd"/>
   </g>
   <g fill="none" stroke-width="2.5" transform="matrix(1,0,0,1,1500,1500)" font-size="42.3333" font-family="Noto Sans" font-style="normal" stroke="#000000" font-weight="400" stroke-opacity="1" stroke-linejoin="bevel" stroke-linecap="round">
    <path d="M600,-700 L700,-700" vector-effect="none" fill-rule="evenodd"/>
   </g>
   <g fill="none" stroke-width="2.5" transform="matrix(1,0,0,1,1500,1500)" font-size="42.3333" font-family="Noto Sans" font-style="normal" stroke="#000000" font-weight="400" stroke-opacity="1" stroke-linejoin="bevel" stroke-linecap="round">
    <path d="M2.22045e-15,-700 L600,-700" vector-effect="none" fill-rule="evenodd"/>
   </g>
   <g fill="none" stroke-width="2.5" transform="matrix(1,0,0,1,1500,1500)" font-size="42.3333" font-family="Noto Sans" font-style="normal" stroke="#000000" font-weight="400" stroke-opacity="1" stroke-linejoin="bevel" stroke-linecap="round">
    <path d="M-700,-700 L0,-700" vector-effect="none" fill-rule="evenodd"/>
   </g>
   <g fill="none" stroke-width="2.5" transform="matrix(1,0,0,1,1500,1500)" font-size="42.3333" font-family="Noto Sans" font-style="normal" stroke="#000000" font-weight="400" stroke-opacity="1" stroke-linejoin="bevel" stroke-linecap="round">
    <path d="M2.22045e-15,-700 L-600,700" vector-effect="none" fill-rule="evenodd"/>
   </g>
   <g fill="none" stroke-width="2.5" transform="matrix(1,0,0,1,1500,1500)" font-size="42.3333" font-family="Noto Sans" font-style="normal" stroke="#000000" font-weight="400" stroke-opacity="1" stroke-linejoin="bevel" stroke-linecap="round">
    <path d="M-600,700 L0,700" vector-effect="none" fill-rule="evenodd"/>
   </g>
   <g fill="none" stroke-width="2.5" transform="matrix(1,0,0,1,1500,1500)" font-size="42.3333" font-family="Noto Sans" font-style="normal" stroke="#000000" font-weight="400" stroke-opacity="1" stroke-linejoin="bevel" stroke-linecap="round">
    <path d="M0,700 L700,700" vector-effect="none" fill-rule="evenodd"/>
   </g>
  </g>
 </g>
</svg>
